# AST/ASF file generated using VICON BodyLanguage
# -----------------------------------------------
:version 1.10
:name VICON
:units
  mass 1.0
  length 0.45
  angle deg
:documentation
   .ast/.asf automatically generated from VICON data using
   VICON BodyBuilder and BodyLanguage model FoxedUp or BRILLIANT.MOD
:root
   order TX TY TZ RX RY RZ
   axis XYZ
   position 0 0 0  
   orientation 0 0 0 
:bonedata
  begin
     id 1 
     name lhipjoint
     direction 0.661853 -0.702389 0.261917 
     length 2.64193 
     axis 0 0 0  XYZ
  end
  begin
     id 2 
     name lfemur
     direction 0.34202 -0.939693 0  
     length 7.01722  
     axis 0 0 20  XYZ
    dof rx ry rz
    limits (-160.0 20.0)
           (-70.0 70.0)
           (-60.0 70.0)
  end
  begin
     id 3 
     name ltibia
     direction 0.34202 -0.939693 0   
     length 8.25008   
     axis 0 0 20   XYZ
    dof rx
    limits (-10.0 170.0)
  end
  begin
     id 4 
     name lfoot
     direction 0.0709916 -0.195048 0.978221   
     length 2.31941   
     axis -90 7.62852e-016 20   XYZ
    dof rx rz
    limits (-45.0 90.0)
           (-70.0 20.0)
  end
  begin
     id 5 
     name ltoes
     direction 1.53586e-011 -4.22017e-011 1   
     length 1.16486   
     axis -90 7.62852e-016 20   XYZ
    dof rx
    limits (-90.0 20.0)
  end
  begin
     id 6 
     name rhipjoint
     direction -0.638185 -0.721362 0.268992   
     length 2.57244  
     axis 0 0 0  XYZ 
  end
  begin
     id 7 
     name rfemur
     direction -0.34202 -0.939693 0   
     length 7.07017   
     axis 0 0 -20   XYZ
    dof rx ry rz
    limits (-160.0 20.0)
           (-70.0 70.0)
           (-70.0 60.0)
  end
  begin
     id 8 
     name rtibia
     direction -0.34202 -0.939693 0   
     length 8.20386   
     axis 0 0 -20   XYZ
    dof rx
    limits (-10.0 170.0)
 end
 begin
     id 9 
     name rfoot
     direction -0.0822429 -0.225961 0.970658   
     length 2.32215  
     axis -90 -7.62852e-016 -20   XYZ
    dof rx rz
    limits (-45.0 90.0)
           (-20.0 70.0)
  end
  begin
     id 10 
     name rtoes
     direction -1.53597e-011 -4.21689e-011 1   
     length 1.16333   
     axis -90 -7.62852e-016 -20   XYZ
    dof rx
    limits (-90.0 20.0)
  end
  begin
     id 11 
     name lowerback
     direction -0.0131557 0.998589 -0.0514484   
     length 2.14993   
     axis 0 0 0   XYZ
    dof rx ry rz
    limits (-20.0 45.0)
           (-30.0 30.0)
           (-30.0 30.0)
  end
  begin
     id 12 
     name upperback
     direction -0.000776481 0.999993 0.00352685   
     length 2.15301   
     axis 0 0 0   XYZ
    dof rx ry rz
    limits (-20.0 45.0)
           (-30.0 30.0)
           (-30.0 30.0)
  end
  begin
     id 13 
     name thorax
     direction 0.00438186 0.999609 0.0276143   
     length 2.15424   
     axis 0 0 0   XYZ
    dof rx ry rz
    limits (-20.0 45.0)
           (-30.0 30.0)
           (-30.0 30.0)
  end
  begin
     id 14 
     name lowerneck
     direction -0.0488006 0.998094 0.0377807   
     length 1.90481   
     axis 0 0 0   XYZ
    dof rx ry rz
    limits (-20.0 45.0)
           (-30.0 30.0)
           (-30.0 30.0)
  end
  begin
     id 15 
     name upperneck
     direction 0.0443769 0.990702 -0.12861   
     length 1.91305   
     axis 0 0 0   XYZ
    dof rx ry rz
    limits (-20.0 45.0)
           (-30.0 30.0)
           (-30.0 30.0)
  end
  begin
     id 16
     name head
     direction 0.0165599 0.998647 -0.0492982  
     length 1.92369  
     axis 0 0 0   XYZ
    dof rx ry rz
    limits (-20.0 45.0)
           (-30.0 30.0)
           (-30.0 30.0)
  end
  begin
     id 17 
     name lclavicle
     direction 0.911936 0.410197 -0.0105506  
     length 3.52622  
     axis 0 0 0   XYZ
    dof ry rz
    limits (-20.0 10.0)
           (0.0 20.0)
  end
  begin
     id 18 
     name lhumerus
     direction 1 -4.48974e-011 -2.48591e-028   
     length 5.47651   
     axis 180 -30 -90   XYZ
    dof rx ry rz
    limits (-60.0 90.0)
           (-90.0 90.0)
           (-90.0 90.0)
  end
  begin
     id 19
     name lradius
     direction 1 -4.48938e-011 -4.40099e-027   
     length 3.09058   
     axis 180 -30 -90   XYZ
    dof rx
    limits (-10.0 170.0)
  end
  begin
     id 20
     name lwrist
     direction 1 -4.49042e-011 -2.99852e-027   
     length 1.54529   
     axis 1.95339e-015 90 90   XYZ
    dof ry
    limits (-180.0 0.0)
 end
  begin
     id 21 
     name lhand
     direction 1 -4.48815e-011 -5.98193e-027   
     length 0.771611   
     axis 3.82337e-015 90 90   XYZ
    dof rx rz
    limits (-90.0 90.0)
           (-45.0 45.0)
  end
  begin
     id 22 
     name lfingers
     direction 1 -4.49034e-011 -1.1993e-026   
     length 0.622093   
     axis 7.64668e-015 90 90   XYZ
    dof rx
    limits (0.0 90.0)
  end
  begin
     id 23
     name lthumb
     direction 0.707107 -6.34867e-011 0.707107   
     length 0.893204   
     axis -90 45 -1.62303e-014   XYZ
    dof rx rz
    limits (-45.0 45.0)
           (-45.0 45.0)
  end
  begin
     id 24 
     name rclavicle
     direction -0.93442 0.355634 -0.0195692   
     length 3.62463  
     axis 0 0 0   XYZ 
    dof ry rz
    limits (-10.0 20.0)
           (-20.0 0.0)
  end
  begin
     id 25 
     name rhumerus
     direction -1 -4.48957e-011 -1.19147e-027  
     length 5.14182   
     axis 180 30 90   XYZ
    dof rx ry rz
    limits (-90.0 60.0)
           (-90.0 90.0)
           (-90.0 90.0)
  end
  begin
     id 26 
     name rradius
     direction -1 -4.48952e-011 -3.81062e-027   
     length 3.35565   
     axis 180 30 90   XYZ
    dof rx
    limits (-10.0 170.0)
  end
  begin
     id 27 
     name rwrist
     direction -1 -4.48973e-011 -2.99621e-027   
     length 1.67782   
     axis 1.95339e-015 -90 -90   XYZ
    dof ry
    limits (-180.0 0.0)
  end
  begin
     id 28
     name rhand
     direction -1 -4.48895e-011 -5.98727e-027   
     length 0.801042   
     axis 3.82337e-015 -90 -90   XYZ
    dof rx rz
    limits (-90.0 90.0)
           (-45.0 45.0)
  end
  begin
     id 29
     name rfingers
     direction -1 -4.49065e-011 -1.19972e-026   
     length 0.645821   
     axis 7.64668e-015 -90 -90   XYZ
    dof rx
    limits (0.0 90.0)
  end
  begin
     id 30
     name rthumb
     direction -0.707107 -6.34957e-011 0.707107   
     length 0.927273   
     axis -90 -45 1.62303e-014   XYZ
    dof rx rz
    limits (-45.0 45.0)
           (-45.0 45.0)
  end
:hierarchy
  begin
    root lhipjoint rhipjoint lowerback
    lhipjoint lfemur
    lfemur ltibia
    ltibia lfoot
    lfoot ltoes
    rhipjoint rfemur
    rfemur rtibia
    rtibia rfoot
    rfoot rtoes
    lowerback upperback
    upperback thorax
    thorax lowerneck lclavicle rclavicle
    lowerneck upperneck
    upperneck head
    lclavicle lhumerus
    lhumerus lradius
    lradius lwrist
    lwrist lhand lthumb
    lhand lfingers
    rclavicle rhumerus
    rhumerus rradius
    rradius rwrist
    rwrist rhand rthumb
    rhand rfingers
  end

#!OML:ASF E:\Style4\Style4.ASF
:FULLY-SPECIFIED
:DEGREES
250
root -0.247488 17.3526 -0.934454 -6.44501 -0.94696 3.44081
lowerback 9.02107 2.4008 -2.2825
upperback 10.6111 3.05225 1.20931
thorax 5.89763 1.32886 2.42357
lowerneck 12.264 -3.04923 -7.26181
upperneck 5.4755 -4.92871 3.27918
head -0.0726028 -2.6085 2.48083
rclavicle -7.95139e-015 -2.38542e-015
rhumerus 10.9148 22.0449 -85.9395
rradius 134.799
rwrist 16.461
rhand 38.0802 -9.22076
rfingers 7.12502
rthumb 60.7856 -22.1491
lclavicle -7.95139e-015 -2.38542e-015
lhumerus 15.4702 -25.372 95.1529
lradius 137.322
lwrist -16.3101
lhand 22.642 46.6552
lfingers 7.12502
lthumb 46.9879 69.3267
rfemur -12.3217 -4.51647 15.7365
rtibia 42.4829
rfoot -22.2109 -16.8456
rtoes -10.3398
lfemur -10.093 3.55101 -21.017
ltibia 38.1713
lfoot -22.0428 10.9217
ltoes -14.0486
251
root -0.245441 17.3514 -0.935247 -6.42524 -0.960107 3.44249
lowerback 8.9935 2.45175 -2.16442
upperback 10.6669 3.12706 1.19733
thorax 5.97562 1.37328 2.34523
lowerneck 12.1009 -3.09143 -7.29383
upperneck 5.5426 -4.97846 3.39145
head -0.0172774 -2.63508 2.52008
rclavicle 3.77691e-015 -3.18055e-015
rhumerus 10.9931 21.8375 -85.8571
rradius 134.805
rwrist 16.476
rhand 38.1056 -9.10577
rfingers 7.12502
rthumb 60.8071 -22.0099
lclavicle 3.77691e-015 -3.18055e-015
lhumerus 15.7146 -25.5799 95.1207
lradius 137.225
lwrist -16.2934
lhand 22.4411 46.6313
lfingers 7.12502
lthumb 46.8019 69.3843
rfemur -12.3684 -4.522 15.7286
rtibia 42.5193
rfoot -22.2249 -16.8413
rtoes -9.97761
lfemur -10.126 3.55083 -21.0272
ltibia 38.1974
lfoot -22.0529 10.9014
ltoes -13.9881
252
root -0.245352 17.3513 -0.936153 -6.41841 -1.02502 3.48645
lowerback 8.94284 2.53514 -2.0554
upperback 10.7233 3.24743 1.12606
thorax 6.06806 1.4423 2.20929
lowerneck 12.0772 -3.15515 -7.1873
upperneck 5.54205 -5.04813 3.46068
head -0.0104007 -2.66835 2.52512
rclavicle -2.68359e-014 2.62396e-014
rhumerus 11.0595 21.5495 -85.8405
rradius 134.795
rwrist 16.4471
rhand 38.0332 -9.01707
rfingers 7.12502
rthumb 60.7458 -21.9899
lclavicle -2.68359e-014 2.62396e-014
lhumerus 15.9327 -25.8587 95.0102
lradius 137.086
lwrist -16.3805
lhand 22.268 46.5437
lfingers 7.12502
lthumb 46.6417 69.3661
rfemur -12.4259 -4.45172 15.694
rtibia 42.5754
rfoot -22.2242 -16.8489
rtoes -9.81492
lfemur -10.1454 3.60973 -21.0664
ltibia 38.2192
lfoot -22.0406 10.82
ltoes -13.3771
253
root -0.245575 17.3488 -0.936698 -6.41987 -1.08991 3.50117
lowerback 8.94017 2.56848 -2.02255
upperback 10.7481 3.29434 1.10033
thorax 6.09745 1.46847 2.16319
lowerneck 12.1002 -3.17671 -7.15039
upperneck 5.52483 -5.07373 3.49743
head -0.0184197 -2.68077 2.53241
rclavicle -5.1684e-015 -1.11319e-014
rhumerus 11.0959 21.4642 -85.868
rradius 134.803
rwrist 16.3846
rhand 37.9922 -9.02941
rfingers 7.12502
rthumb 60.7109 -22.0411
lclavicle -5.1684e-015 -1.11319e-014
lhumerus 15.9808 -25.957 94.9392
lradius 137.031
lwrist -16.5095
lhand 22.1892 46.4049
lfingers 7.12502
lthumb 46.5688 69.2587
rfemur -12.4778 -4.36576 15.695
rtibia 42.6406
rfoot -22.2577 -16.8742
rtoes -9.79891
lfemur -10.1617 3.66522 -21.0757
ltibia 38.2539
lfoot -22.0575 10.8776
ltoes -13.6666
254
root -0.244599 17.3454 -0.937638 -6.40145 -1.11618 3.58227
lowerback 8.96852 2.55966 -2.11006
upperback 10.7192 3.27882 1.07134
thorax 6.04824 1.45677 2.17974
lowerneck 12.1085 -3.14364 -7.15692
upperneck 5.61136 -5.03232 3.51451
head 0.00632881 -2.66171 2.53691
rclavicle -2.46493e-014 2.38542e-015
rhumerus 11.0329 21.5432 -85.9626
rradius 134.831
rwrist 16.2986
rhand 38.027 -9.01531
rfingers 7.12502
rthumb 60.7404 -21.9941
lclavicle -2.46493e-014 2.38542e-015
lhumerus 15.9065 -25.926 94.9162
lradius 137.084
lwrist -16.4857
lhand 22.2611 46.3652
lfingers 7.12502
lthumb 46.6353 69.1904
rfemur -12.5568 -4.36643 15.6
rtibia 42.7202
rfoot -22.2789 -16.8411
rtoes -9.74136
lfemur -10.213 3.71139 -21.165
ltibia 38.2968
lfoot -22.1265 10.9751
ltoes -14.3487
255
root -0.2428 17.343 -0.939561 -6.38589 -1.1195 3.61335
lowerback 8.99509 2.53862 -2.12278
upperback 10.6787 3.2511 1.02115
thorax 5.99269 1.44527 2.13278
lowerneck 12.2238 -3.11802 -7.11833
upperneck 5.62959 -5.002 3.55173
head -0.00903636 -2.64746 2.5445
rclavicle 4.49253e-014 -8.74653e-015
rhumerus 10.9241 21.6043 -86.1344
rradius 134.875
rwrist 16.2756
rhand 38.0713 -8.99567
rfingers 7.12502
rthumb 60.778 -21.9324
lclavicle 4.49253e-014 -8.74653e-015
lhumerus 15.8357 -25.8493 94.8729
lradius 137.125
lwrist -16.3404
lhand 22.4127 46.3995
lfingers 7.12502
lthumb 46.7757 69.1639
rfemur -12.618 -4.39541 15.5534
rtibia 42.7965
rfoot -22.3388 -16.7723
rtoes -9.63508
lfemur -10.2766 3.70412 -21.2099
ltibia 38.3736
lfoot -22.1598 10.9262
ltoes -14.0658
256
root -0.241568 17.3406 -0.940985 -6.38304 -1.11892 3.60974
lowerback 9.01457 2.50041 -2.14574
upperback 10.6667 3.19915 1.00315
thorax 5.97125 1.41872 2.12757
lowerneck 12.4031 -3.10249 -7.02807
upperneck 5.50398 -4.98041 3.48196
head -0.0849057 -2.63387 2.51121
rclavicle -2.44505e-014 4.77083e-015
rhumerus 10.9051 21.7306 -86.2468
rradius 134.861
rwrist 16.3614
rhand 38.0741 -8.97522
rfingers 7.12502
rthumb 60.7804 -21.9093
lclavicle -2.44505e-014 4.77083e-015
lhumerus 15.748 -25.7858 94.8449
lradius 137.204
lwrist -16.2519
lhand 22.5326 46.4548
lfingers 7.12502
lthumb 46.8867 69.1708
rfemur -12.6683 -4.40852 15.5489
rtibia 42.8808
rfoot -22.3889 -16.7227
rtoes -9.57098
lfemur -10.3281 3.72464 -21.2083
ltibia 38.4715
lfoot -22.1156 10.8343
ltoes -13.6402
